<svg xmlns="http://www.w3.org/2000/svg" height="16" width="16" viewBox="0 0 4.2333333 4.2333334">
   <path fill="#505050" d="M 2.1166667,0 A 2.1166665,2.1166666 0 0 0 0,2.1166666 2.1166665,2.1166666 0 0 0 2.1166667,4.2333333 2.1166665,2.1166666 0 0 0 4.2333333,2.1166666 2.1166665,2.1166666 0 0 0 2.1166667,0 Z M 1.6987255,1.1391585 h 0.01258 0.3884857 0.8107305 V 1.4568313 H 2.1216324 V 1.9796677 H 2.7927155 V 2.2973403 H 2.1216324 v 0.7941861 h -0.021841 v 0.00265 H 1.6921125 V 1.5230175 c -0.011472,0.00882 -0.036179,0.020295 -0.074123,0.034413 -0.037062,0.013236 -0.081625,0.026032 -0.1336885,0.038386 -0.052063,0.012354 -0.1058961,0.020732 -0.1614889,0.025144 V 1.297999 C 1.3784051,1.290939 1.4326796,1.279028 1.4856252,1.262261 1.5385702,1.244613 1.5840102,1.224757 1.621954,1.202696 1.660781,1.180635 1.686372,1.159454 1.6987255,1.1391585 Z" />
</svg>
